<svg height="784" width="2280" xmlns="http://www.w3.org/2000/svg"><path d="m632.4 761.5c-30.3-34-63.3-113.6-63.7-153.6-.1-10.5 12.7-20.3 60.8-46.5 13.1-7.2 22.9-14.5 21.8-16.4s-3.2-2.7-4.6-1.8-19.5 3.5-40.3 5.8-40.1 6-43 8.2c-7.6 5.6-19.7 67.6-22.6 115l-2.4 40.6-6.2-13.9c-7.6-17.1-16.5-67-16.5-92.1s6.8-73 10.9-77.3c3.6-3.7 95.7-19.1 115.5-19.3 14.3-.2 13.5-7.1-1.4-11.8-26-8.3-96.8-38.8-96.8-41.8 0-6.1 34.5-80.8 46.3-100.2 12.4-20.5 52.2-66.5 55-63.7.9.9-3 10.1-8.8 20.4-11.5 20.4-39 95-42.1 113.9-2.3 14-1.4 14.6 45.8 31.8 17.9 6.5 35.2 12.9 38.6 14.3 13.8 5.5 4.7-6.4-21.9-28.4-15.4-12.8-29-26.2-30.2-29.9-5.1-16.1 59-100.5 101.7-133.9 29.3-22.9 31.3-22.1 9.1 3.6-34.9 40.5-53.4 71.1-63.5 104.8l-4.5 15.1 17.4 17.7c19.4 19.8 51.5 45.5 56.7 45.5 1.9 0 5.5-8.3 8-18.5 3.7-14.8 8.3-22.1 23.4-36.5l18.8-18 18.3-126.6c10.1-69.7 19.9-128.6 21.8-131.1 2.6-3.3 24.5-4.4 87.5-4.4 46.2 0 84.7 1.2 85.6 2.6.9 1.5-3.8 39.2-10.3 83.8s-11.9 83.1-11.9 85.5c-.2 8.6-6.7 4.2-19.7-13.5l-13.2-17.9 7.1-50c3.9-27.5 6.4-51.2 5.6-52.6-.8-1.5-23.5-2.6-50.5-2.6-43.6 0-49.1.7-50.7 6.2-1 3.4-8.6 55.1-16.9 114.8l-15.2 108.6 11.3 8.9c13.7 10.7 19.9 30.6 16.5 53.1-2.4 16-2.4 16 5.9 11.6 24.1-12.9 85.6-56.1 92.5-65 4.4-5.7.1-43.5-7.9-68.9-3.9-12.6-13.6-33.9-21.4-47.3s-13.5-25.1-12.6-26c3.5-3.5 36.2 34.3 52.1 60.1 21.1 34.2 37.7 84.6 30.6 93-2.6 3.2-21.4 16.9-41.8 30.6s-35.3 25.4-33.2 26.1 25.6-6.2 52.2-15.2c38.6-13.2 49-18.1 51.4-24.4 4.1-10.7-2.3-96.2-9.1-122.5-3-11.6-4.8-21.8-3.9-22.7 2.4-2.4 14.2 15.5 26.6 40.2 13.5 26.8 25.3 75.5 26.2 108l .7 24.1-42.3 15.5c-23.3 8.5-50.7 18-60.9 21s-18.5 6.7-18.5 8.2 25 6.5 55.6 11c30.6 4.6 58.4 9.7 61.9 11.5 7.5 3.8 6.8 9.2-8.6 69.6-9.8 38.5-25.6 75.3-43.9 102.3-9.6 14.2-10.6 9.5-3.2-15 6.1-20.1 15.9-88 15.9-110 0-8.5-1.6-16.6-3.6-17.8s-18.3-4.5-36.2-7.2c-56.4-8.6-60.9-6.1-26.7 14.7 26.6 16.1 45.3 32.2 45.3 38.9 0 10.1-31.6 67.6-53.2 96.7-22.1 29.8-51.9 60.9-72 75.2l-10.6 7.5 7.1-9.1c33.4-43 43.6-58.5 56.7-86.1 18.7-39.3 27.2-69.9 21.4-76.9-10-12.2-67.3-51.8-74.9-51.8-2.6 0-3.4 8.3-2.3 25.6 2.1 33.5-3.5 62.1-18.3 93.3-48.1 101.4-148.1 100.5-168-1.6-5.5-28-3-55.5 8-88.1 4.7-14.1 7.9-26.3 7-27.2-2.1-2.1-17.3 5.7-50.1 25.6-41.8 25.4-42.3 26.1-42.3 55.1.1 36.3 8.3 69.9 26.2 107 8.7 17.9 15.1 32.6 14.4 32.6s-9.4-9.1-19.3-20.1zm-473-211.5c-84.7-16.4-135.9-54.8-153.3-114.8-5.9-20.3-8.3-62.3-4-69.3 2.8-4.6 173.8-5.8 180.6-1.3 2.1 1.4 5 8.4 6.3 15.6 4.7 25.5 32.3 37.9 74.4 33.6 22.5-2.3 39.9-10.7 43.9-21.2 6.8-18-10.7-28.8-72.6-44.9-83.7-21.8-132.9-41.7-162.4-65.6-40-32.5-47.2-102.6-16.9-165.7 24-50.1 80.4-90.2 151.6-107.8 43.1-10.6 130.7-11.5 172.9-1.8 78 18 122.9 61.1 132.7 127.3 3 20.1 3 29.4.1 35.8l-3.9 8.7-87-.9c-94.4-1-88.7.3-95.3-21.7-1.9-6.3-7.8-12.7-15.4-16.8-16.1-8.6-50.2-8.8-67.1-.4-10.6 5.3-12.3 7.9-12.3 18.4 0 10.7 1.8 13.3 14.1 20 7.8 4.2 40.3 14.4 72.3 22.5 95.4 24.3 123.4 36.2 150.6 64.1 23.8 24.3 31.1 44.2 30.8 84-.6 95.1-62 165.6-169.1 194.5-23.4 6.3-39.8 7.8-95.2 8.6-36.9.5-71 .2-75.8-.8zm1275.9-15.2c-49.7-15.9-72.9-47.4-72.9-99 0-29.1 10.3-63.6 24.5-82.3 28.9-37.9 76.3-56 181.9-69.2 67.5-8.5 83.5-12.4 93.6-23.1 15.2-16.2-.8-29.9-35-29.9-21.5 0-39.6 9.4-46 23.9-2.8 6.4-8.4 12.4-12.3 13.3-4 1-41.4 1.3-83.1.8l-75.8-1 1-14.1c1.4-20.3 19.5-55.1 38.1-73.4 41.7-41.1 126.4-63.1 221.1-57.5 114.7 6.9 164.2 34.8 173.4 97.9 1.7 11.6-2.8 52.2-15.6 140.3l-18 123.9 7.9 14c6.6 11.8 7.2 15.4 3.8 22.9l-4.1 9-85.5-.9-85.5-.9-2.4-11.6c-1.3-6.4-3.1-12.4-4-13.2-.9-.9-10.2 3.1-20.7 8.8s-33.2 14.4-50.4 19.4c-40 11.6-101.3 12.5-133.9 2.1zm173.3-104.3c12.6-3.8 20.8-8.9 26.8-16.8 9.3-12.3 18.9-40 15.2-43.7-1.3-1.3-13 .5-26.1 3.9-63.2 16.3-78.5 24.3-78.5 40.9 0 19.4 27.3 26.2 62.8 15.6zm-505 97.1c-2.8-87.3 43.6-301.4 51.4-401.6 0-1.5-65.2-2.6-78.8-2.6-18.9 0-25.3-1.3-26.9-5.4-2.6-6.8 9.3-90.2 13.7-95.9 1.9-2.4 14.2-4.7 28.5-5.3l334.5.8c41.5 0 38.6-5.8 28.6 57.7-4 25.7-8.4 43-11.4 44.9-2.7 1.7-19.4 3.1-37.2 3.1l-74.4.1c-8.6 17.6-46.6 336.6-70.6 404.5-78 2.1-86 2.1-157.4-.3zm738.6-7.1c0-9.3 7-62.7 12.4-94 1.6-9.5 15-21.8 91.8-84 49.5-40.1 89-74.3 87.9-76.2-1.2-1.9-31.8-3.3-70.6-3.3-37.7 0-68.6-1.2-68.6-2.6-.1-10.1 15.2-110.1 17.8-116.4l3.2-7.9h181.8 181.8l-.1 9.7c-.1 15.5-13.1 98.8-16.2 103.9-1.5 2.5-6.8 7.8-11.7 11.6-49.7 39.3-160.7 134-160.7 137.1 0 2.8 23.5 4.5 79.4 5.8 76.8 1.7 79.3 2 78.6 8.8-2.6 24-16 113.3-17.4 115.5-.9 1.5-88.9 2.7-195.5 2.7h-193.8v-10.6zm-1325.6-71.3c-3.7-4.6 54.7-419.7 60.3-428.6 3.3-5.3 170-6.5 173.2-1.2 1.1 1.8-6.1 59.3-16 127.9l-17.9 124.7-19.9 18.3c-10.9 10.1-20.6 17.6-21.4 16.8-.9-.9.3-12.3 2.5-25.4 9-53.2 31.8-224.8 30.2-227.4-.9-1.5-23.1-2.8-49.2-2.8-46.1 0-47.6.2-50.4 7.9-1.6 4.4-12.7 77-24.7 161.4-21.3 149.5-22.3 154.4-36.5 188.7-15.1 36.4-19.3 44.1-23.9 44.1-1.5 0-4.3-2-6.2-4.4zm357.8-358.1c-1.7-2.8 6.4-61.7 9.6-70.1 1.5-3.9 12.6-4.9 52.9-4.9 28.1 0 51.9 1.3 52.9 2.9 2.1 3.4-6.8 65.6-10.1 71.1-2.6 4.2-102.8 5.2-105.3 1z"/></svg>