<svg height="822" width="672" xmlns="http://www.w3.org/2000/svg">
	<g stroke="#000">
		<path d="m120 760h115q10 0 10 6.8v6.8m175-113.6v10q0 10-10 10h-85q-10 0-10 6.8v6.8m35 26.4h112.5q10 0 10 6.8v6.8m-192.5-73.6v33.6m-140-33.6v10q0 10 10 10h85q10 0 10 6.8v6.8m195 66.4h-115q-10 0-10 6.8v6.8m190-263.6v223.6m0-303.6v33.6m-264.9 87.2v9.6q0 9.6 10 9.6h19.9q10 0 10 6.8v6.8m-110-33.6v10q0 10-10 10h-10q-10 0-10 6.8v6.8m-10-113.6h-60q-10 0-10 10v253.6m230-263.6h120q10 0 10 10v103.6m-210-93.6v10q0 10 0 0v-5q0-5 0 1.8v6.8m0-73.6v10q0 10 0 0v-5q0-5 0 1.8v6.8m160-93.6v10q0 10 10 10h115q10 0 10 6.8v6.8m-135-33.6v10q0 10-10 10h-140q-10 0-10 6.8v6.8m400-53.6v10q0 10-10 10h-223.6m-246.4-20v10q0 10 10 10h220q10 0 6.8 0h-3.2m-233.6-80v20-20 13.6m360-33.6v10q0 10 10 10h70q10 0 10 6.8v6.8m60-113.6v113.6m-60-113.6v10q0 10-10 10h-70q-10 0-10 6.8v6.8m20-58.6h33.6m-153.6 0h-33.6m-226.4 25v10q0 10 10 10h110q10 0 10 6.8v6.8m30 46.4v50q0 10 10 10h243.6m-253.6-140v33.6m80-163.6v13.6m40 36.4h30q10 0 10 10v13.6m-120-23.6h-30q-10 0-10 10v13.6m120-43.6h190q10 0 10 10v33.6m-280-43.6h-190q-10 0-10 10v33.6" fill="none" stroke-miterlimit="10"/>
		<path d="m245 778.9-3.5-7 3.5 1.8 3.5-1.8zm70-80-3.5-7 3.5 1.8 3.5-1.8zm157.5 40-3.5-7 3.5 1.8 3.5-1.8zm-192.5-40-3.5-7 3.5 1.8 3.5-1.8zm-35 0-3.5-7 3.5 1.8 3.5-1.8zm70 80-3.5-7 3.5 1.8 3.5-1.8zm190-40-3.5-7 3.5 1.8 3.5-1.8zm0-270-3.5-7 3.5 1.8 3.5-1.8zm-225 120-3.5-7 3.5 1.8 3.5-1.8zm-140 0-3.5-7 3.5 1.8 3.5-1.8zm-80 150-3.5-7 3.5 1.8 3.5-1.8zm360-150-3.5-7 3.5 1.8 3.5-1.8zm-210-80-3.5-7 3.5 1.8 3.5-1.8zm0-60-3.5-7 3.5 1.8 3.5-1.8zm295-60-3.5-7 3.5 1.8 3.5-1.8zm-295 0-3.5-7 3.5 1.8 3.5-1.8zm161.1-38.9 7-3.5-1.8 3.5 1.8 3.5zm-2.2 0-7 3.5 1.8-3.5-1.8-3.5zm-238.9-61.1-3.5-7 3.5 1.8 3.5-1.8zm450 0-3.5-7 3.5 1.8 3.5-1.8zm60 0-3.5-7 3.5 1.8 3.5-1.8zm-150-80-3.5-7 3.5 1.8 3.5-1.8zm58.9-63.9-7 3.5 1.8-3.5-1.8-3.5zm-197.8 0 7-3.5-1.8 3.5 1.8 3.5zm-91.1 63.9-3.5-7 3.5 1.8 3.5-1.8zm30 0-3.5-7 3.5 1.8 3.5-1.8zm80-150-3.5-7 3.5 1.8 3.5-1.8zm80 60-3.5-7 3.5 1.8 3.5-1.8zm-160 0-3.5-7 3.5 1.8 3.5-1.8zm320 0-3.5-7 3.5 1.8 3.5-1.8zm-480 0-3.5-7 3.5 1.8 3.5-1.8zm418.9 191.1-7 3.5 1.8-3.5-1.8-3.5z" stroke-miterlimit="10"/>
		<g fill="#fff">
			<rect height="40" rx="6" width="80" x="330"/>
			<rect height="40" rx="6" width="80" x="330" y="60"/>
			<rect height="50" rx="6" width="120" x="230" y="120"/>
			<rect height="40" rx="6" width="120" x="230" y="210"/>
			<rect height="50" rx="6" width="120" x="70" y="120"/>
			<rect height="50" rx="6" width="120" x="390" y="120"/>
			<rect height="50" rx="6" width="120" x="550" y="120"/>
			<rect height="40" rx="6" width="140" x="420" y="210"/>
			<rect height="40" rx="6" width="120" x="70" y="230"/>
			<rect height="40" rx="6" width="120" x="70" y="290"/>
			<rect height="40" rx="6" width="120" x="550" y="290"/>
			<rect height="40" rx="6" width="160" x="130" y="390"/>
			<rect height="40" rx="6" width="160" x="130" y="450"/>
			<rect height="40" rx="6" width="160" x="130" y="510"/>
			<rect height="40" rx="6" width="130" x="440" y="390"/>
			<rect height="40" rx="6" width="130" x="440" y="470"/>
			<rect height="40" rx="6" width="130" x="440" y="740"/>
			<rect height="70" rx="6" width="120" x="80" y="590"/>
			<rect height="70" rx="6" width="120" x="220" y="590"/>
			<rect height="40" rx="6" width="140" x="210" y="700"/>
			<rect height="70" rx="6" width="120" x="360" y="590"/>
			<rect height="40" rx="6" width="120" y="740"/>
			<rect height="40" rx="6" width="140" x="210" y="780"/>
		</g>
	</g>
	<g font-family="Helvetica" font-size="12" text-anchor="middle">
		<text x="370" y="24">CPU</text>
		<text x="370" y="84">BIOS</text>
		<text x="290" y="134">Hard Disk</text>
		<text x="290" y="149">DVD/CD-ROM</text>
		<text x="290" y="164">USB key</text>
		<text x="290" y="234">Boot sector</text>
		<text x="130" y="142">Floppy</text>
		<text x="130" y="156">set (3)</text>
		<text x="450" y="142">Versatile</text>
		<text x="450" y="156">Floppy (2)</text>
		<text x="610" y="135">PXE (4)</text>
		<text x="610" y="149">or</text>
		<text x="610" y="163">WEB boot</text>
		<text x="490" y="234">PXE forwarder (5)</text>
		<text x="130" y="247">Already running</text>
		<text x="130" y="261">Kernel</text>
		<text x="130" y="314">KEXEC (8)</text>
		<text x="610" y="314">Boot loader</text>
		<text x="210" y="407">Frugal/Uncommon(1):</text>
		<text x="210" y="421">load Kernel+initramfs</text>
		<text x="210" y="474">Run /init</text>
		<text x="210" y="534">Create tmpfs</text>
		<text x="505" y="407">Installed:</text>
		<text x="505" y="421">load Kernel only</text>
		<text x="505" y="487">Mount root</text>
		<text x="505" y="501">filesystem</text>
		<text x="505" y="764">Run /sbin/init</text>
		<text x="140" y="615">Loram(7):</text>
		<text x="140" y="629">Mount aufs</text>
		<text x="140" y="643">&amp; squashfs</text>
		<text x="280" y="615">Frugal:</text>
		<text x="280" y="629">populate</text>
		<text x="280" y="643">tmpfs</text>
		<text x="280" y="724">Switch to new root</text>
		<text x="420" y="608">Uncommon(1):</text>
		<text x="420" y="622">run script</text>
		<text x="420" y="636">load modules(s)</text>
		<text x="420" y="650">mount root</text>
		<text x="60" y="764">Tiny SliTaz(6):</text>
		<text x="280" y="797">Run /etc/init.d/rcS</text>
		<text x="280" y="811">from /etc/inittab</text>
	</g>
</svg>
